<svg width="28" height="28" viewBox="0 0 28 28" fill="none" xmlns="http://www.w3.org/2000/svg">
<path d="M13.75 0C6.16 0 0 6.16 0 13.75C0 21.34 6.16 27.5 13.75 27.5C21.34 27.5 27.5 21.34 27.5 13.75C27.5 6.16 21.34 0 13.75 0ZM13.75 4.125C16.0325 4.125 17.875 5.9675 17.875 8.25C17.875 10.5325 16.0325 12.375 13.75 12.375C11.4675 12.375 9.625 10.5325 9.625 8.25C9.625 5.9675 11.4675 4.125 13.75 4.125ZM13.75 23.65C10.3125 23.65 7.27375 21.89 5.5 19.2225C5.54125 16.4862 11 14.9875 13.75 14.9875C16.4862 14.9875 21.9587 16.4862 22 19.2225C20.2262 21.89 17.1875 23.65 13.75 23.65Z" fill="black" fill-opacity="0.6"/>
</svg>
